<svg xmlns="http://www.w3.org/2000/svg" width="40" height="49" fill="none">
  <path fill="#F5F5F7" d="m32.244 44.601-6.124-7.03.235 4.822-3.071 3.581 8.96-1.373Z"/>
  <path fill="#F5F5F7" d="m27.1 40.713-.088-.016-.1-.02-.202-.04-.41-.089c-.275-.06-.55-.125-.826-.191a50.408 50.408 0 0 1-4.91-1.469 43.293 43.293 0 0 1-3.172-1.27 34.526 34.526 0 0 1-3.04-1.54 25.676 25.676 0 0 1-2.827-1.866 18.163 18.163 0 0 1-2.48-2.27 12.975 12.975 0 0 1-1.911-2.736 10.636 10.636 0 0 1-1.046-3.175 9.337 9.337 0 0 1-.094-.847 14.489 14.489 0 0 1 .048-2.581c.124-1.153.36-2.292.702-3.399a23.926 23.926 0 0 1 1.279-3.263 31.163 31.163 0 0 1 1.698-3.087c1.246-1.998 2.687-3.878 4.246-5.652a52.166 52.166 0 0 1 3.708-3.805c.434-.4.873-.795 1.328-1.173-.469.36-.924.736-1.375 1.12-.45.383-.892.776-1.329 1.175-.872.8-1.718 1.63-2.538 2.49-1.636 1.718-3.163 3.553-4.509 5.53a31.63 31.63 0 0 0-1.855 3.08 24.611 24.611 0 0 0-1.454 3.318 19.014 19.014 0 0 0-.88 3.549 16.233 16.233 0 0 0-.159 2.762c.01.309.031.616.055.93.109 1.255.415 2.484.906 3.64a14.546 14.546 0 0 0 1.902 3.219c.76.976 1.608 1.879 2.532 2.696a27.77 27.77 0 0 0 2.896 2.242 36.773 36.773 0 0 0 3.11 1.885 46.11 46.11 0 0 0 3.25 1.598 52.29 52.29 0 0 0 5.934 2.218l.443.128.224.063.114.032.125.033.705-3.219Z"/>
</svg>
