<svg xmlns="http://www.w3.org/2000/svg" width="15" height="15" fill="none">
  <path fill="#000" d="M5.068 1.635c-.574.146-1.025.668-1.025 1.19 0 .087-.14.099-1.389.116-1.336.018-1.406.024-1.67.159-.334.17-.638.474-.82.826l-.135.263V12.158l.135.264c.193.369.504.674.856.832l.298.135h12.364l.304-.141c.393-.176.733-.539.891-.967.123-.328.123-.398.123-4.101 0-3.188-.012-3.809-.088-4.06-.111-.376-.498-.815-.885-1.015-.275-.14-.328-.146-1.675-.164l-1.383-.023-.041-.211a1.322 1.322 0 0 0-.703-.967c-.229-.123-.3-.129-2.608-.14-1.306-.006-2.449.011-2.549.035Zm4.928.844c.14.123.164.193.194.591.029.352.064.475.152.54.088.064.422.081 1.635.081 1.4 0 1.54.012 1.763.118.153.076.287.199.37.345l.128.229-.011 3.844c-.018 3.767-.018 3.838-.141 3.996a1.596 1.596 0 0 1-.281.28c-.159.124-.194.124-6.305.124s-6.146 0-6.305-.123a1.598 1.598 0 0 1-.28-.281C.79 12.064.79 12.012.79 8.173c0-3.837 0-3.89.123-4.048.299-.404.275-.398 2.086-.434 1.863-.035 1.805-.017 1.805-.533 0-.345.082-.58.252-.709.117-.094.34-.105 2.455-.105h2.326l.158.135Z"/>
  <path fill="#000" d="M12.38 4.7c-.257.064-.486.357-.486.609 0 .55.522.884.997.638.246-.129.351-.31.351-.62 0-.47-.392-.75-.861-.628ZM6.621 4.775c-1.324.375-2.267 1.377-2.555 2.73-.351 1.653.704 3.475 2.315 3.985.539.17 1.383.211 1.904.088a3.51 3.51 0 0 0 2.643-2.713c.164-.78.064-1.5-.317-2.28a3.56 3.56 0 0 0-1.957-1.722c-.48-.176-1.558-.217-2.033-.088Zm1.758.832c1.289.428 2.092 1.84 1.793 3.141-.428 1.846-2.45 2.719-4.078 1.764-2.045-1.196-1.594-4.336.703-4.963.457-.123 1.101-.1 1.582.058Z"/>
</svg>
