<svg xmlns="http://www.w3.org/2000/svg" width="15" height="15" fill="none">
  <g fill="#000" clip-path="url(#a)">
    <path d="M12.46.117a1.454 1.454 0 0 0-.536.243c-.13.085-6.806 6.727-6.917 6.882-.062.085-.964 3.287-.964 3.422 0 .164.19.352.357.352.13 0 3.334-.906 3.416-.964.044-.032 1.591-1.57 3.44-3.422 2.452-2.455 3.39-3.413 3.477-3.55a1.75 1.75 0 0 0 .24-1.193 2.182 2.182 0 0 0-.155-.451c-.105-.223-.16-.29-.533-.663-.372-.372-.44-.424-.662-.533A1.601 1.601 0 0 0 12.46.117Zm.85.797c.16.08.755.677.843.844.059.111.07.176.07.41 0 .354-.052.469-.386.817l-.24.252-.888-.887-.888-.888.258-.246c.144-.135.316-.273.387-.308a1 1 0 0 1 .844.006Zm-1.123 1.972.865.864-2.734 2.73-2.73 2.734-.864-.864c-.475-.475-.865-.876-.865-.894 0-.038 5.397-5.435 5.435-5.435.018 0 .419.39.893.865ZM6.85 9.577c-.109.035-1.884.525-1.89.522-.003-.003.088-.337.2-.739.11-.404.23-.835.266-.964l.061-.228.698.697c.386.387.682.706.665.712Z"/>
    <path d="M1.406 1.57a1.882 1.882 0 0 0-1.3 1.213l-.091.25v5.2c0 4.96.003 5.208.052 5.372.109.352.226.548.49.812.184.184.304.278.46.354.427.214.008.203 6.19.194l5.552-.009.196-.076c.577-.226.985-.639 1.175-1.198.064-.188.064-.217.073-2.08.009-1.697.006-1.899-.038-1.98a.367.367 0 0 0-.334-.188c-.097 0-.143.02-.231.1l-.109.099-.014 1.857c-.015 1.849-.015 1.855-.082 2.022-.12.298-.346.524-.645.644l-.167.068-5.373.008c-3.548.003-5.429-.002-5.537-.023a1.13 1.13 0 0 1-.812-.624l-.085-.182V3.091l.085-.185c.109-.234.358-.471.595-.568l.17-.068 1.846-.014c2.062-.018 1.945-.003 2.05-.226.068-.14.039-.278-.09-.404l-.103-.103-1.88.003c-1.562 0-1.908.01-2.043.044Z"/>
  </g>
  <defs>
    <clipPath id="a">
      <path fill="#fff" d="M0 0h15v15H0z"/>
    </clipPath>
  </defs>
</svg>
